<?xml version="1.0" encoding="UTF-8" standalone="no"?>
<!DOCTYPE svg PUBLIC "-//W3C//DTD SVG 1.1//EN"
 "http://www.w3.org/Graphics/SVG/1.1/DTD/svg11.dtd">
<!-- Generated by graphviz version 2.38.0 (20140413.2041)
 -->
<!-- Title: G Pages: 1 -->
<svg width="1432pt" height="653pt"
 viewBox="0.00 0.00 1432.00 653.00" xmlns="http://www.w3.org/2000/svg" xmlns:xlink="http://www.w3.org/1999/xlink">
<g id="graph0" class="graph" transform="scale(1 1) rotate(0) translate(4 649)">
<title>G</title>
<polygon fill="white" stroke="none" points="-4,4 -4,-649 1428,-649 1428,4 -4,4"/>
<!-- 1 -->
<g id="node1" class="node"><title>1</title>
<polygon fill="none" stroke="black" points="807,-106.5 807,-175.5 932,-175.5 932,-106.5 807,-106.5"/>
<text text-anchor="middle" x="869.5" y="-160.3" font-family="Times,serif" font-size="14.00" id="Concept_Albums_2">Concept_Albums_2</text>
<polyline fill="none" stroke="black" points="807,-152.5 932,-152.5 "/>
<text text-anchor="middle" x="869.5" y="-137.3" font-family="Times,serif" font-size="14.00"> </text>
<polyline fill="none" stroke="black" points="807,-129.5 932,-129.5 "/>
<text text-anchor="middle" x="869.5" y="-114.3" font-family="Times,serif" font-size="14.00">on_the_beach</text>
</g>
<!-- 17 -->
<g id="node17" class="node"><title>17</title>
<polygon fill="none" stroke="black" points="947.5,-220 947.5,-289 1079.5,-289 1079.5,-220 947.5,-220"/>
<text text-anchor="middle" x="1013.5" y="-273.8" font-family="Times,serif" font-size="14.00" id="Concept_Albums_16">Concept_Albums_16</text>
<polyline fill="none" stroke="black" points="947.5,-266 1079.5,-266 "/>
<text text-anchor="middle" x="1013.5" y="-250.8" font-family="Times,serif" font-size="14.00">neil_young</text>
<polyline fill="none" stroke="black" points="947.5,-243 1079.5,-243 "/>
<text text-anchor="middle" x="1013.5" y="-227.8" font-family="Times,serif" font-size="14.00"> </text>
</g>
<!-- 1&#45;&gt;17 -->
<g id="edge16" class="edge"><title>1&#45;&gt;17</title>
<path fill="none" stroke="black" d="M913.096,-175.756C928.463,-187.655 945.886,-201.146 961.854,-213.51"/>
<polygon fill="black" stroke="black" points="960.003,-216.504 970.053,-219.858 964.289,-210.969 960.003,-216.504"/>
</g>
<!-- 22 -->
<g id="node22" class="node"><title>22</title>
<polygon fill="none" stroke="black" points="610.5,-575.5 610.5,-644.5 742.5,-644.5 742.5,-575.5 610.5,-575.5"/>
<text text-anchor="middle" x="676.5" y="-629.3" font-family="Times,serif" font-size="14.00" id="Concept_Albums_21">Concept_Albums_21</text>
<polyline fill="none" stroke="black" points="610.5,-621.5 742.5,-621.5 "/>
<text text-anchor="middle" x="676.5" y="-606.3" font-family="Times,serif" font-size="14.00">nI=1</text>
<polyline fill="none" stroke="black" points="610.5,-598.5 742.5,-598.5 "/>
<text text-anchor="middle" x="676.5" y="-583.3" font-family="Times,serif" font-size="14.00"> </text>
</g>
<!-- 1&#45;&gt;22 -->
<g id="edge28" class="edge"><title>1&#45;&gt;22</title>
<path fill="none" stroke="black" d="M882.128,-175.629C894.709,-207.701 915.435,-256.917 938.5,-297 948.344,-314.107 958.428,-314.221 964.5,-333 978.174,-375.289 986.24,-394.236 964.5,-433 919.467,-513.296 821.235,-561.324 752.064,-586.448"/>
<polygon fill="black" stroke="black" points="750.758,-583.197 742.505,-589.842 753.1,-589.794 750.758,-583.197"/>
</g>
<!-- 24 -->
<g id="node24" class="node"><title>24</title>
<polygon fill="none" stroke="black" points="635.5,-469.5 635.5,-538.5 767.5,-538.5 767.5,-469.5 635.5,-469.5"/>
<text text-anchor="middle" x="701.5" y="-523.3" font-family="Times,serif" font-size="14.00" id="Concept_Albums_23">Concept_Albums_23</text>
<polyline fill="none" stroke="black" points="635.5,-515.5 767.5,-515.5 "/>
<text text-anchor="middle" x="701.5" y="-500.3" font-family="Times,serif" font-size="14.00">rock</text>
<polyline fill="none" stroke="black" points="635.5,-492.5 767.5,-492.5 "/>
<text text-anchor="middle" x="701.5" y="-477.3" font-family="Times,serif" font-size="14.00"> </text>
</g>
<!-- 1&#45;&gt;24 -->
<g id="edge33" class="edge"><title>1&#45;&gt;24</title>
<path fill="none" stroke="black" d="M859.821,-175.54C838.984,-247.233 790.619,-410.709 776.5,-433 769.882,-443.448 761.337,-453.378 752.396,-462.303"/>
<polygon fill="black" stroke="black" points="749.963,-459.787 745.17,-469.235 754.81,-464.838 749.963,-459.787"/>
</g>
<!-- 2 -->
<g id="node2" class="node"><title>2</title>
<polygon fill="none" stroke="black" points="750,-0.5 750,-69.5 875,-69.5 875,-0.5 750,-0.5"/>
<text text-anchor="middle" x="812.5" y="-54.3" font-family="Times,serif" font-size="14.00" id="Concept_Albums_6">Concept_Albums_6</text>
<polyline fill="none" stroke="black" points="750,-46.5 875,-46.5 "/>
<text text-anchor="middle" x="812.5" y="-31.3" font-family="Times,serif" font-size="14.00"> </text>
<polyline fill="none" stroke="black" points="750,-23.5 875,-23.5 "/>
<text text-anchor="middle" x="812.5" y="-8.3" font-family="Times,serif" font-size="14.00">harvest</text>
</g>
<!-- 8 -->
<g id="node8" class="node"><title>8</title>
<polygon fill="none" stroke="black" points="950.5,-106.5 950.5,-175.5 1082.5,-175.5 1082.5,-106.5 950.5,-106.5"/>
<text text-anchor="middle" x="1016.5" y="-160.3" font-family="Times,serif" font-size="14.00" id="Concept_Albums_11">Concept_Albums_11</text>
<polyline fill="none" stroke="black" points="950.5,-152.5 1082.5,-152.5 "/>
<text text-anchor="middle" x="1016.5" y="-137.3" font-family="Times,serif" font-size="14.00"> </text>
<polyline fill="none" stroke="black" points="950.5,-129.5 1082.5,-129.5 "/>
<text text-anchor="middle" x="1016.5" y="-114.3" font-family="Times,serif" font-size="14.00">comes_a_time</text>
</g>
<!-- 2&#45;&gt;8 -->
<g id="edge1" class="edge"><title>2&#45;&gt;8</title>
<path fill="none" stroke="black" d="M875.093,-67.9102C896.093,-78.6159 919.726,-90.6641 941.573,-101.802"/>
<polygon fill="black" stroke="black" points="939.991,-104.924 950.489,-106.348 943.17,-98.6874 939.991,-104.924"/>
</g>
<!-- 2&#45;&gt;24 -->
<g id="edge34" class="edge"><title>2&#45;&gt;24</title>
<path fill="none" stroke="black" d="M782.158,-69.8544C737.741,-121.939 656.99,-226.869 626.5,-333 614.228,-375.717 608.787,-392.238 626.5,-433 631.112,-443.613 638.213,-453.347 646.244,-461.966"/>
<polygon fill="black" stroke="black" points="643.962,-464.635 653.501,-469.246 648.92,-459.693 643.962,-464.635"/>
</g>
<!-- 3 -->
<g id="node3" class="node"><title>3</title>
<polygon fill="none" stroke="black" points="1107,-106.5 1107,-175.5 1232,-175.5 1232,-106.5 1107,-106.5"/>
<text text-anchor="middle" x="1169.5" y="-160.3" font-family="Times,serif" font-size="14.00" id="Concept_Albums_1">Concept_Albums_1</text>
<polyline fill="none" stroke="black" points="1107,-152.5 1232,-152.5 "/>
<text text-anchor="middle" x="1169.5" y="-137.3" font-family="Times,serif" font-size="14.00"> </text>
<polyline fill="none" stroke="black" points="1107,-129.5 1232,-129.5 "/>
<text text-anchor="middle" x="1169.5" y="-114.3" font-family="Times,serif" font-size="14.00">help</text>
</g>
<!-- 13 -->
<g id="node13" class="node"><title>13</title>
<polygon fill="none" stroke="black" points="1247.5,-220 1247.5,-289 1379.5,-289 1379.5,-220 1247.5,-220"/>
<text text-anchor="middle" x="1313.5" y="-273.8" font-family="Times,serif" font-size="14.00" id="Concept_Albums_12">Concept_Albums_12</text>
<polyline fill="none" stroke="black" points="1247.5,-266 1379.5,-266 "/>
<text text-anchor="middle" x="1313.5" y="-250.8" font-family="Times,serif" font-size="14.00">the_beatles</text>
<polyline fill="none" stroke="black" points="1247.5,-243 1379.5,-243 "/>
<text text-anchor="middle" x="1313.5" y="-227.8" font-family="Times,serif" font-size="14.00"> </text>
</g>
<!-- 3&#45;&gt;13 -->
<g id="edge8" class="edge"><title>3&#45;&gt;13</title>
<path fill="none" stroke="black" d="M1213.1,-175.756C1228.46,-187.655 1245.89,-201.146 1261.85,-213.51"/>
<polygon fill="black" stroke="black" points="1260,-216.504 1270.05,-219.858 1264.29,-210.969 1260,-216.504"/>
</g>
<!-- 14 -->
<g id="node14" class="node"><title>14</title>
<polygon fill="none" stroke="black" points="1097.5,-220 1097.5,-289 1229.5,-289 1229.5,-220 1097.5,-220"/>
<text text-anchor="middle" x="1163.5" y="-273.8" font-family="Times,serif" font-size="14.00" id="Concept_Albums_15">Concept_Albums_15</text>
<polyline fill="none" stroke="black" points="1097.5,-266 1229.5,-266 "/>
<text text-anchor="middle" x="1163.5" y="-250.8" font-family="Times,serif" font-size="14.00">1InI=4</text>
<polyline fill="none" stroke="black" points="1097.5,-243 1229.5,-243 "/>
<text text-anchor="middle" x="1163.5" y="-227.8" font-family="Times,serif" font-size="14.00"> </text>
</g>
<!-- 3&#45;&gt;14 -->
<g id="edge10" class="edge"><title>3&#45;&gt;14</title>
<path fill="none" stroke="black" d="M1167.68,-175.756C1167.11,-186.454 1166.46,-198.439 1165.86,-209.735"/>
<polygon fill="black" stroke="black" points="1162.35,-209.685 1165.31,-219.858 1169.34,-210.061 1162.35,-209.685"/>
</g>
<!-- 4 -->
<g id="node4" class="node"><title>4</title>
<polygon fill="none" stroke="black" points="1299,-0.5 1299,-69.5 1424,-69.5 1424,-0.5 1299,-0.5"/>
<text text-anchor="middle" x="1361.5" y="-54.3" font-family="Times,serif" font-size="14.00" id="Concept_Albums_0">Concept_Albums_0</text>
<polyline fill="none" stroke="black" points="1299,-46.5 1424,-46.5 "/>
<text text-anchor="middle" x="1361.5" y="-31.3" font-family="Times,serif" font-size="14.00"> </text>
<polyline fill="none" stroke="black" points="1299,-23.5 1424,-23.5 "/>
<text text-anchor="middle" x="1361.5" y="-8.3" font-family="Times,serif" font-size="14.00">rubber_soul</text>
</g>
<!-- 9 -->
<g id="node9" class="node"><title>9</title>
<polygon fill="none" stroke="black" points="1253,-106.5 1253,-175.5 1378,-175.5 1378,-106.5 1253,-106.5"/>
<text text-anchor="middle" x="1315.5" y="-160.3" font-family="Times,serif" font-size="14.00" id="Concept_Albums_7">Concept_Albums_7</text>
<polyline fill="none" stroke="black" points="1253,-152.5 1378,-152.5 "/>
<text text-anchor="middle" x="1315.5" y="-137.3" font-family="Times,serif" font-size="14.00">nS4</text>
<polyline fill="none" stroke="black" points="1253,-129.5 1378,-129.5 "/>
<text text-anchor="middle" x="1315.5" y="-114.3" font-family="Times,serif" font-size="14.00">let_it_be</text>
</g>
<!-- 4&#45;&gt;9 -->
<g id="edge2" class="edge"><title>4&#45;&gt;9</title>
<path fill="none" stroke="black" d="M1346.57,-69.7658C1342.71,-78.4818 1338.51,-87.9803 1334.48,-97.0942"/>
<polygon fill="black" stroke="black" points="1331.2,-95.8424 1330.36,-106.404 1337.61,-98.674 1331.2,-95.8424"/>
</g>
<!-- 20 -->
<g id="node20" class="node"><title>20</title>
<polygon fill="none" stroke="black" points="1111.5,-348.5 1111.5,-417.5 1243.5,-417.5 1243.5,-348.5 1111.5,-348.5"/>
<text text-anchor="middle" x="1177.5" y="-402.3" font-family="Times,serif" font-size="14.00" id="Concept_Albums_20">Concept_Albums_20</text>
<polyline fill="none" stroke="black" points="1111.5,-394.5 1243.5,-394.5 "/>
<text text-anchor="middle" x="1177.5" y="-379.3" font-family="Times,serif" font-size="14.00">folk</text>
<polyline fill="none" stroke="black" points="1111.5,-371.5 1243.5,-371.5 "/>
<text text-anchor="middle" x="1177.5" y="-356.3" font-family="Times,serif" font-size="14.00"> </text>
</g>
<!-- 4&#45;&gt;20 -->
<g id="edge23" class="edge"><title>4&#45;&gt;20</title>
<path fill="none" stroke="black" d="M1377.84,-69.8388C1400.94,-123.092 1435.41,-227.534 1388.5,-297 1358.48,-341.459 1300.91,-362.669 1253.48,-372.785"/>
<polygon fill="black" stroke="black" points="1252.64,-369.383 1243.53,-374.779 1254.02,-376.246 1252.64,-369.383"/>
</g>
<!-- 5 -->
<g id="node5" class="node"><title>5</title>
<polygon fill="none" stroke="black" points="454,-220 454,-289 579,-289 579,-220 454,-220"/>
<text text-anchor="middle" x="516.5" y="-273.8" font-family="Times,serif" font-size="14.00" id="Concept_Albums_4">Concept_Albums_4</text>
<polyline fill="none" stroke="black" points="454,-266 579,-266 "/>
<text text-anchor="middle" x="516.5" y="-250.8" font-family="Times,serif" font-size="14.00"> </text>
<polyline fill="none" stroke="black" points="454,-243 579,-243 "/>
<text text-anchor="middle" x="516.5" y="-227.8" font-family="Times,serif" font-size="14.00">hot_rats</text>
</g>
<!-- 10 -->
<g id="node10" class="node"><title>10</title>
<polygon fill="none" stroke="black" points="303.5,-348.5 303.5,-417.5 435.5,-417.5 435.5,-348.5 303.5,-348.5"/>
<text text-anchor="middle" x="369.5" y="-402.3" font-family="Times,serif" font-size="14.00" id="Concept_Albums_10">Concept_Albums_10</text>
<polyline fill="none" stroke="black" points="303.5,-394.5 435.5,-394.5 "/>
<text text-anchor="middle" x="369.5" y="-379.3" font-family="Times,serif" font-size="14.00">40IdI=50</text>
<polyline fill="none" stroke="black" points="303.5,-371.5 435.5,-371.5 "/>
<text text-anchor="middle" x="369.5" y="-356.3" font-family="Times,serif" font-size="14.00"> </text>
</g>
<!-- 5&#45;&gt;10 -->
<g id="edge4" class="edge"><title>5&#45;&gt;10</title>
<path fill="none" stroke="black" d="M477.493,-289.068C458.645,-305.287 435.884,-324.874 416.127,-341.875"/>
<polygon fill="black" stroke="black" points="413.731,-339.32 408.434,-348.495 418.297,-344.625 413.731,-339.32"/>
</g>
<!-- 12 -->
<g id="node12" class="node"><title>12</title>
<polygon fill="none" stroke="black" points="454,-348.5 454,-417.5 579,-417.5 579,-348.5 454,-348.5"/>
<text text-anchor="middle" x="516.5" y="-402.3" font-family="Times,serif" font-size="14.00" id="Concept_Albums_8">Concept_Albums_8</text>
<polyline fill="none" stroke="black" points="454,-394.5 579,-394.5 "/>
<text text-anchor="middle" x="516.5" y="-379.3" font-family="Times,serif" font-size="14.00">frank_zappa</text>
<polyline fill="none" stroke="black" points="454,-371.5 579,-371.5 "/>
<text text-anchor="middle" x="516.5" y="-356.3" font-family="Times,serif" font-size="14.00"> </text>
</g>
<!-- 5&#45;&gt;12 -->
<g id="edge5" class="edge"><title>5&#45;&gt;12</title>
<path fill="none" stroke="black" d="M516.5,-289.068C516.5,-304.078 516.5,-321.974 516.5,-338.035"/>
<polygon fill="black" stroke="black" points="513,-338.276 516.5,-348.276 520,-338.276 513,-338.276"/>
</g>
<!-- 18 -->
<g id="node18" class="node"><title>18</title>
<polygon fill="none" stroke="black" points="823.5,-348.5 823.5,-417.5 955.5,-417.5 955.5,-348.5 823.5,-348.5"/>
<text text-anchor="middle" x="889.5" y="-402.3" font-family="Times,serif" font-size="14.00" id="Concept_Albums_17">Concept_Albums_17</text>
<polyline fill="none" stroke="black" points="823.5,-394.5 955.5,-394.5 "/>
<text text-anchor="middle" x="889.5" y="-379.3" font-family="Times,serif" font-size="14.00">aI=1970</text>
<polyline fill="none" stroke="black" points="823.5,-371.5 955.5,-371.5 "/>
<text text-anchor="middle" x="889.5" y="-356.3" font-family="Times,serif" font-size="14.00"> </text>
</g>
<!-- 5&#45;&gt;18 -->
<g id="edge18" class="edge"><title>5&#45;&gt;18</title>
<path fill="none" stroke="black" d="M579.171,-271.917C632.263,-286.362 710.117,-308.812 776.5,-333 788.748,-337.463 801.57,-342.579 813.999,-347.784"/>
<polygon fill="black" stroke="black" points="812.837,-351.093 823.41,-351.772 815.568,-344.647 812.837,-351.093"/>
</g>
<!-- 6 -->
<g id="node6" class="node"><title>6</title>
<polygon fill="none" stroke="black" points="163.5,-220 163.5,-289 291.5,-289 291.5,-220 163.5,-220"/>
<text text-anchor="middle" x="227.5" y="-273.8" font-family="Times,serif" font-size="14.00" id="Concept_Albums_5">Concept_Albums_5</text>
<polyline fill="none" stroke="black" points="163.5,-266 291.5,-266 "/>
<text text-anchor="middle" x="227.5" y="-250.8" font-family="Times,serif" font-size="14.00"> </text>
<polyline fill="none" stroke="black" points="163.5,-243 291.5,-243 "/>
<text text-anchor="middle" x="227.5" y="-227.8" font-family="Times,serif" font-size="14.00">the_low_end_theory</text>
</g>
<!-- 6&#45;&gt;10 -->
<g id="edge3" class="edge"><title>6&#45;&gt;10</title>
<path fill="none" stroke="black" d="M265.181,-289.068C283.234,-305.151 305.005,-324.545 323.978,-341.447"/>
<polygon fill="black" stroke="black" points="321.848,-344.237 331.643,-348.276 326.505,-339.01 321.848,-344.237"/>
</g>
<!-- 16 -->
<g id="node16" class="node"><title>16</title>
<polygon fill="none" stroke="black" points="3.5,-333.5 3.5,-432.5 135.5,-432.5 135.5,-333.5 3.5,-333.5"/>
<text text-anchor="middle" x="69.5" y="-417.3" font-family="Times,serif" font-size="14.00" id="Concept_Albums_14">Concept_Albums_14</text>
<polyline fill="none" stroke="black" points="3.5,-409.5 135.5,-409.5 "/>
<text text-anchor="middle" x="69.5" y="-394.3" font-family="Times,serif" font-size="14.00">rap</text>
<text text-anchor="middle" x="69.5" y="-379.3" font-family="Times,serif" font-size="14.00">tribe_called_quest</text>
<text text-anchor="middle" x="69.5" y="-364.3" font-family="Times,serif" font-size="14.00">aS1990</text>
<polyline fill="none" stroke="black" points="3.5,-356.5 135.5,-356.5 "/>
<text text-anchor="middle" x="69.5" y="-341.3" font-family="Times,serif" font-size="14.00"> </text>
</g>
<!-- 6&#45;&gt;16 -->
<g id="edge13" class="edge"><title>6&#45;&gt;16</title>
<path fill="none" stroke="black" d="M185.574,-289.068C171.039,-300.705 154.339,-314.075 138.22,-326.981"/>
<polygon fill="black" stroke="black" points="135.984,-324.287 130.365,-333.269 140.359,-329.751 135.984,-324.287"/>
</g>
<!-- 7 -->
<g id="node7" class="node"><title>7</title>
<polygon fill="none" stroke="black" points="311,-220 311,-289 436,-289 436,-220 311,-220"/>
<text text-anchor="middle" x="373.5" y="-273.8" font-family="Times,serif" font-size="14.00" id="Concept_Albums_3">Concept_Albums_3</text>
<polyline fill="none" stroke="black" points="311,-266 436,-266 "/>
<text text-anchor="middle" x="373.5" y="-250.8" font-family="Times,serif" font-size="14.00"> </text>
<polyline fill="none" stroke="black" points="311,-243 436,-243 "/>
<text text-anchor="middle" x="373.5" y="-227.8" font-family="Times,serif" font-size="14.00">joes_garage</text>
</g>
<!-- 7&#45;&gt;12 -->
<g id="edge6" class="edge"><title>7&#45;&gt;12</title>
<path fill="none" stroke="black" d="M411.446,-289.068C429.627,-305.151 451.551,-324.545 470.657,-341.447"/>
<polygon fill="black" stroke="black" points="468.568,-344.271 478.377,-348.276 473.206,-339.028 468.568,-344.271"/>
</g>
<!-- 15 -->
<g id="node15" class="node"><title>15</title>
<polygon fill="none" stroke="black" points="153.5,-348.5 153.5,-417.5 285.5,-417.5 285.5,-348.5 153.5,-348.5"/>
<text text-anchor="middle" x="219.5" y="-402.3" font-family="Times,serif" font-size="14.00" id="Concept_Albums_13">Concept_Albums_13</text>
<polyline fill="none" stroke="black" points="153.5,-394.5 285.5,-394.5 "/>
<text text-anchor="middle" x="219.5" y="-379.3" font-family="Times,serif" font-size="14.00">dS50</text>
<polyline fill="none" stroke="black" points="153.5,-371.5 285.5,-371.5 "/>
<text text-anchor="middle" x="219.5" y="-356.3" font-family="Times,serif" font-size="14.00"> </text>
</g>
<!-- 7&#45;&gt;15 -->
<g id="edge11" class="edge"><title>7&#45;&gt;15</title>
<path fill="none" stroke="black" d="M332.635,-289.068C312.803,-305.358 288.834,-325.047 268.073,-342.101"/>
<polygon fill="black" stroke="black" points="265.794,-339.443 260.288,-348.495 270.237,-344.852 265.794,-339.443"/>
</g>
<!-- 19 -->
<g id="node19" class="node"><title>19</title>
<polygon fill="none" stroke="black" points="635.5,-348.5 635.5,-417.5 767.5,-417.5 767.5,-348.5 635.5,-348.5"/>
<text text-anchor="middle" x="701.5" y="-402.3" font-family="Times,serif" font-size="14.00" id="Concept_Albums_18">Concept_Albums_18</text>
<polyline fill="none" stroke="black" points="635.5,-394.5 767.5,-394.5 "/>
<text text-anchor="middle" x="701.5" y="-379.3" font-family="Times,serif" font-size="14.00">1970IaI=1990</text>
<polyline fill="none" stroke="black" points="635.5,-371.5 767.5,-371.5 "/>
<text text-anchor="middle" x="701.5" y="-356.3" font-family="Times,serif" font-size="14.00"> </text>
</g>
<!-- 7&#45;&gt;19 -->
<g id="edge20" class="edge"><title>7&#45;&gt;19</title>
<path fill="none" stroke="black" d="M427.36,-289.059C433.039,-291.966 438.816,-294.678 444.5,-297 505.172,-321.783 525.419,-311.993 587.5,-333 600.021,-337.237 613.089,-342.258 625.722,-347.443"/>
<polygon fill="black" stroke="black" points="624.705,-350.811 635.282,-351.431 627.4,-344.351 624.705,-350.811"/>
</g>
<!-- 8&#45;&gt;14 -->
<g id="edge9" class="edge"><title>8&#45;&gt;14</title>
<path fill="none" stroke="black" d="M1061,-175.756C1076.69,-187.655 1094.48,-201.146 1110.78,-213.51"/>
<polygon fill="black" stroke="black" points="1109.06,-216.604 1119.15,-219.858 1113.3,-211.027 1109.06,-216.604"/>
</g>
<!-- 8&#45;&gt;17 -->
<g id="edge15" class="edge"><title>8&#45;&gt;17</title>
<path fill="none" stroke="black" d="M1015.59,-175.756C1015.3,-186.454 1014.98,-198.439 1014.68,-209.735"/>
<polygon fill="black" stroke="black" points="1011.18,-209.768 1014.41,-219.858 1018.17,-209.956 1011.18,-209.768"/>
</g>
<!-- 9&#45;&gt;13 -->
<g id="edge7" class="edge"><title>9&#45;&gt;13</title>
<path fill="none" stroke="black" d="M1314.89,-175.756C1314.7,-186.454 1314.49,-198.439 1314.29,-209.735"/>
<polygon fill="black" stroke="black" points="1310.78,-209.797 1314.1,-219.858 1317.78,-209.923 1310.78,-209.797"/>
</g>
<!-- 21 -->
<g id="node21" class="node"><title>21</title>
<polygon fill="none" stroke="black" points="303.5,-469.5 303.5,-538.5 435.5,-538.5 435.5,-469.5 303.5,-469.5"/>
<text text-anchor="middle" x="369.5" y="-523.3" font-family="Times,serif" font-size="14.00" id="Concept_Albums_19">Concept_Albums_19</text>
<polyline fill="none" stroke="black" points="303.5,-515.5 435.5,-515.5 "/>
<text text-anchor="middle" x="369.5" y="-500.3" font-family="Times,serif" font-size="14.00">jazz</text>
<polyline fill="none" stroke="black" points="303.5,-492.5 435.5,-492.5 "/>
<text text-anchor="middle" x="369.5" y="-477.3" font-family="Times,serif" font-size="14.00"> </text>
</g>
<!-- 10&#45;&gt;21 -->
<g id="edge24" class="edge"><title>10&#45;&gt;21</title>
<path fill="none" stroke="black" d="M369.5,-417.782C369.5,-430.595 369.5,-445.379 369.5,-458.998"/>
<polygon fill="black" stroke="black" points="366,-459.133 369.5,-469.133 373,-459.133 366,-459.133"/>
</g>
<!-- 11 -->
<g id="node11" class="node"><title>11</title>
<polygon fill="none" stroke="black" points="0,-212.5 0,-296.5 143,-296.5 143,-212.5 0,-212.5"/>
<text text-anchor="middle" x="71.5" y="-281.3" font-family="Times,serif" font-size="14.00" id="Concept_Albums_9">Concept_Albums_9</text>
<polyline fill="none" stroke="black" points="0,-273.5 143,-273.5 "/>
<text text-anchor="middle" x="71.5" y="-258.3" font-family="Times,serif" font-size="14.00"> </text>
<polyline fill="none" stroke="black" points="0,-250.5 143,-250.5 "/>
<text text-anchor="middle" x="71.5" y="-235.3" font-family="Times,serif" font-size="14.00">midnight_marauders</text>
<text text-anchor="middle" x="71.5" y="-220.3" font-family="Times,serif" font-size="14.00">beats_rhymes_and_life</text>
</g>
<!-- 11&#45;&gt;15 -->
<g id="edge12" class="edge"><title>11&#45;&gt;15</title>
<path fill="none" stroke="black" d="M119.551,-296.571C136.379,-310.954 155.258,-327.09 172.037,-341.432"/>
<polygon fill="black" stroke="black" points="170.212,-344.476 180.088,-348.313 174.76,-339.155 170.212,-344.476"/>
</g>
<!-- 11&#45;&gt;16 -->
<g id="edge14" class="edge"><title>11&#45;&gt;16</title>
<path fill="none" stroke="black" d="M70.8507,-296.571C70.7164,-305.062 70.5725,-314.164 70.4305,-323.148"/>
<polygon fill="black" stroke="black" points="66.9301,-323.147 70.2715,-333.201 73.9293,-323.257 66.9301,-323.147"/>
</g>
<!-- 12&#45;&gt;21 -->
<g id="edge26" class="edge"><title>12&#45;&gt;21</title>
<path fill="none" stroke="black" d="M474.769,-417.782C457.471,-431.785 437.266,-448.142 419.208,-462.76"/>
<polygon fill="black" stroke="black" points="416.651,-460.327 411.081,-469.339 421.056,-465.768 416.651,-460.327"/>
</g>
<!-- 12&#45;&gt;24 -->
<g id="edge32" class="edge"><title>12&#45;&gt;24</title>
<path fill="none" stroke="black" d="M569.019,-417.782C591.279,-432.101 617.364,-448.88 640.473,-463.745"/>
<polygon fill="black" stroke="black" points="638.867,-466.873 649.17,-469.339 642.654,-460.986 638.867,-466.873"/>
</g>
<!-- 13&#45;&gt;18 -->
<g id="edge17" class="edge"><title>13&#45;&gt;18</title>
<path fill="none" stroke="black" d="M1256.52,-289.048C1250.54,-291.957 1244.46,-294.673 1238.5,-297 1213.18,-306.883 1060.5,-342.723 965.665,-364.585"/>
<polygon fill="black" stroke="black" points="964.781,-361.196 955.822,-366.851 966.352,-368.018 964.781,-361.196"/>
</g>
<!-- 23 -->
<g id="node23" class="node"><title>23</title>
<polygon fill="none" stroke="black" points="1158.5,-469.5 1158.5,-538.5 1290.5,-538.5 1290.5,-469.5 1158.5,-469.5"/>
<text text-anchor="middle" x="1224.5" y="-523.3" font-family="Times,serif" font-size="14.00" id="Concept_Albums_22">Concept_Albums_22</text>
<polyline fill="none" stroke="black" points="1158.5,-515.5 1290.5,-515.5 "/>
<text text-anchor="middle" x="1224.5" y="-500.3" font-family="Times,serif" font-size="14.00">dI=40</text>
<polyline fill="none" stroke="black" points="1158.5,-492.5 1290.5,-492.5 "/>
<text text-anchor="middle" x="1224.5" y="-477.3" font-family="Times,serif" font-size="14.00"> </text>
</g>
<!-- 13&#45;&gt;23 -->
<g id="edge30" class="edge"><title>13&#45;&gt;23</title>
<path fill="none" stroke="black" d="M1302.52,-289.044C1290.67,-324.866 1271,-383.212 1252.5,-433 1249.25,-441.74 1245.64,-451.036 1242.13,-459.902"/>
<polygon fill="black" stroke="black" points="1238.83,-458.722 1238.37,-469.307 1245.33,-461.32 1238.83,-458.722"/>
</g>
<!-- 14&#45;&gt;20 -->
<g id="edge22" class="edge"><title>14&#45;&gt;20</title>
<path fill="none" stroke="black" d="M1167.21,-289.068C1168.88,-304.078 1170.86,-321.974 1172.63,-338.035"/>
<polygon fill="black" stroke="black" points="1169.19,-338.721 1173.77,-348.276 1176.15,-337.951 1169.19,-338.721"/>
</g>
<!-- 15&#45;&gt;21 -->
<g id="edge25" class="edge"><title>15&#45;&gt;21</title>
<path fill="none" stroke="black" d="M262.083,-417.782C279.734,-431.785 300.351,-448.142 318.777,-462.76"/>
<polygon fill="black" stroke="black" points="317.061,-465.866 327.071,-469.339 321.412,-460.382 317.061,-465.866"/>
</g>
<!-- 16&#45;&gt;21 -->
<g id="edge27" class="edge"><title>16&#45;&gt;21</title>
<path fill="none" stroke="black" d="M135.599,-428.547C138.57,-430.115 141.545,-431.608 144.5,-433 192.154,-455.445 248.792,-473.02 293.321,-484.946"/>
<polygon fill="black" stroke="black" points="292.645,-488.387 303.207,-487.555 294.431,-481.619 292.645,-488.387"/>
</g>
<!-- 17&#45;&gt;19 -->
<g id="edge19" class="edge"><title>17&#45;&gt;19</title>
<path fill="none" stroke="black" d="M947.371,-280.535C908.528,-295.419 858.56,-314.875 814.5,-333 802.366,-337.992 789.557,-343.405 777.094,-348.752"/>
<polygon fill="black" stroke="black" points="775.448,-345.65 767.647,-352.82 778.216,-352.079 775.448,-345.65"/>
</g>
<!-- 17&#45;&gt;20 -->
<g id="edge21" class="edge"><title>17&#45;&gt;20</title>
<path fill="none" stroke="black" d="M1057.02,-289.068C1078.23,-305.43 1103.89,-325.221 1126.06,-342.326"/>
<polygon fill="black" stroke="black" points="1124.01,-345.159 1134.06,-348.495 1128.28,-339.616 1124.01,-345.159"/>
</g>
<!-- 18&#45;&gt;24 -->
<g id="edge35" class="edge"><title>18&#45;&gt;24</title>
<path fill="none" stroke="black" d="M836.381,-417.623C813.558,-432.07 786.743,-449.043 763.059,-464.035"/>
<polygon fill="black" stroke="black" points="761.066,-461.154 754.488,-469.46 764.81,-467.069 761.066,-461.154"/>
</g>
<!-- 20&#45;&gt;23 -->
<g id="edge31" class="edge"><title>20&#45;&gt;23</title>
<path fill="none" stroke="black" d="M1190.84,-417.782C1196,-430.847 1201.97,-445.959 1207.44,-459.797"/>
<polygon fill="black" stroke="black" points="1204.2,-461.118 1211.12,-469.133 1210.71,-458.547 1204.2,-461.118"/>
</g>
<!-- 21&#45;&gt;22 -->
<g id="edge29" class="edge"><title>21&#45;&gt;22</title>
<path fill="none" stroke="black" d="M435.736,-527.438C484.256,-543.875 550.194,-566.212 600.798,-583.355"/>
<polygon fill="black" stroke="black" points="599.788,-586.708 610.382,-586.602 602.034,-580.078 599.788,-586.708"/>
</g>
</g>
</svg>
